<svg width="40" height="40" viewBox="0 0 40 40" fill="none" xmlns="http://www.w3.org/2000/svg" xmlns:xlink="http://www.w3.org/1999/xlink">
<path d="M8.448,2.204L7.931,0.272L7.931,0.272L8.448,2.204ZM4.204,6.448L2.272,5.931L2.272,5.931L4.204,6.448ZM31.552,2.204L32.069,0.272L32.069,0.272L31.552,2.204ZM35.796,6.448L37.728,5.931L37.728,5.931L35.796,6.448ZM35.196,35L33.464,34L33.464,34L35.196,35ZM33,37.196L32,35.464L32,35.464L33,37.196ZM4.804,35L6.536,34L6.536,34L4.804,35ZM7,37.196L8,35.464L8,35.464L7,37.196ZM14,0L12,0L12,4L14,4L14,0ZM12,0C10.269,0 9.011,-0.017 7.931,0.272L8.965,4.136C9.409,4.017 10.011,4 12,4L12,0ZM7.931,0.272C6.574,0.635 5.336,1.35 4.343,2.343L7.171,5.171C7.668,4.675 8.287,4.318 8.965,4.136L7.931,0.272ZM4.343,2.343C3.35,3.336 2.635,4.574 2.272,5.931L6.136,6.965C6.318,6.287 6.675,5.668 7.171,5.171L4.343,2.343ZM2.272,5.931C1.983,7.011 2,8.269 2,10L6,10C6,8.011 6.017,7.409 6.136,6.965L2.272,5.931ZM26,4L28,4L28,0L26,0L26,4ZM28,4C29.989,4 30.591,4.017 31.035,4.136L32.069,0.272C30.989,-0.017 29.731,0 28,0L28,4ZM31.035,4.136C31.713,4.318 32.332,4.675 32.829,5.171L35.657,2.343C34.664,1.35 33.426,0.635 32.069,0.272L31.035,4.136ZM32.829,5.171C33.325,5.668 33.682,6.287 33.864,6.965L37.728,5.931C37.365,4.574 36.65,3.336 35.657,2.343L32.829,5.171ZM33.864,6.965C33.983,7.409 34,8.011 34,10L38,10C38,8.269 38.017,7.011 37.728,5.931L33.864,6.965ZM34,26L34,28L38,28L38,26L34,26ZM34,28C34,29.907 33.998,31.203 33.908,32.2C33.82,33.17 33.661,33.659 33.464,34L36.928,36C37.535,34.949 37.778,33.808 37.891,32.561C38.002,31.341 38,29.833 38,28L34,28ZM33.464,34C33.113,34.608 32.608,35.113 32,35.464L34,38.928C35.216,38.226 36.226,37.216 36.928,36L33.464,34ZM32,35.464C31.659,35.661 31.17,35.82 30.2,35.908C29.203,35.998 27.907,36 26,36L26,40C27.833,40 29.341,40.002 30.561,39.891C31.808,39.778 32.949,39.535 34,38.928L32,35.464ZM2,26L2,28L6,28L6,26L2,26ZM2,28C2,29.833 1.998,31.341 2.109,32.561C2.222,33.808 2.465,34.949 3.072,36L6.536,34C6.339,33.659 6.18,33.17 6.092,32.2C6.002,31.203 6,29.907 6,28L2,28ZM3.072,36C3.774,37.216 4.784,38.226 6,38.928L8,35.464C7.392,35.113 6.887,34.608 6.536,34L3.072,36ZM6,38.928C7.051,39.535 8.192,39.778 9.439,39.891C10.659,40.002 12.167,40 14,40L14,36C12.093,36 10.797,35.998 9.8,35.908C8.83,35.82 8.341,35.661 8,35.464L6,38.928Z" fill="#000000"/>
<path d="M2,24C0.895,24 0,24.895 0,26C0,27.105 0.895,28 2,28L2,24ZM38,28C39.105,28 40,27.105 40,26C40,24.895 39.105,24 38,24L38,28ZM10,26L8,26C8,27.105 8.895,28 10,28L10,26ZM30,26L30,28C31.105,28 32,27.105 32,26L30,26ZM2,28L38,28L38,24L2,24L2,28ZM8,18L8,26L12,26L12,18L8,18ZM10,28L30,28L30,24L10,24L10,28ZM32,26L32,18L28,18L28,26L32,26ZM32,18C32,17.114 32.004,16.248 31.909,15.539C31.806,14.772 31.554,13.898 30.828,13.172L28,16C27.86,15.86 27.901,15.75 27.945,16.072C27.996,16.452 28,17 28,18L32,18ZM30.828,13.172C30.102,12.446 29.228,12.194 28.461,12.091C27.752,11.996 26.886,12 26,12L26,16C27,16 27.548,16.004 27.928,16.055C28.25,16.099 28.14,16.14 28,16L30.828,13.172ZM26,12L14,12L14,16L26,16L26,12ZM14,12C13.114,12 12.248,11.996 11.539,12.091C10.772,12.194 9.898,12.446 9.172,13.172L12,16C11.86,16.14 11.75,16.099 12.072,16.055C12.452,16.004 13,16 14,16L14,12ZM9.172,13.172C8.446,13.898 8.194,14.772 8.091,15.539C7.996,16.248 8,17.114 8,18L12,18C12,17 12.004,16.452 12.055,16.072C12.099,15.75 12.14,15.86 12,16L9.172,13.172Z" fill="#000000"/>
</svg>
