<svg width="48" height="34" viewBox="0 0 48 34" fill="none" xmlns="http://www.w3.org/2000/svg" xmlns:xlink="http://www.w3.org/1999/xlink">
<path d="M32.37,29.894L27.528,25.655C25.656,26.24 23.631,26.349 21.691,25.967C19.751,25.586 17.975,24.73 16.568,23.5C15.162,22.27 14.184,20.715 13.748,19.018C13.313,17.32 13.437,15.549 14.106,13.91L7.926,8.503C2.814,12.48 0,17 0,17C0,17 9,31.438 24,31.438C26.881,31.431 29.731,30.905 32.37,29.894ZM15.63,4.106C18.269,3.094 21.119,2.569 24,2.563C39,2.563 48,17 48,17C48,17 45.183,21.518 40.077,25.5L33.891,20.087C34.56,18.449 34.684,16.678 34.249,14.98C33.813,13.282 32.835,11.728 31.429,10.497C30.022,9.267 28.246,8.411 26.306,8.03C24.366,7.648 22.341,7.757 20.469,8.343L15.63,4.106Z" fill="#000000"/>
<path d="M16.575,16.071C16.41,17.08 16.516,18.108 16.884,19.075C17.252,20.042 17.872,20.92 18.696,21.641C19.52,22.362 20.524,22.905 21.629,23.227C22.734,23.549 23.909,23.641 25.062,23.497L16.575,16.071ZM31.425,17.929L22.938,10.501C24.091,10.356 25.266,10.449 26.371,10.771C27.476,11.093 28.48,11.636 29.304,12.356C30.128,13.077 30.748,13.956 31.116,14.922C31.484,15.889 31.59,16.918 31.425,17.927L31.425,17.929ZM40.938,33.679L4.938,2.179L7.062,0.321L43.062,31.821L40.938,33.679Z" fill="#000000"/>
</svg>
