<svg width="40" height="40" viewBox="0 0 40 40" fill="none" xmlns="http://www.w3.org/2000/svg" xmlns:xlink="http://www.w3.org/1999/xlink">
<path d="M20,37.917C18.7,37.917 17.433,37.25 16.567,36.083L14.883,33.833C14.533,33.367 14.067,33.1 13.567,33.067C13.067,33.05 12.567,33.267 12.167,33.683L11.217,32.833L12.133,33.683C9.733,36.25 7.883,36.05 7,35.7C6.1,35.35 4.583,34.2 4.583,30.5L4.583,11.733C4.583,4.333 6.717,2.083 13.7,2.083L26.3,2.083C33.283,2.083 35.417,4.333 35.417,11.733L35.417,30.5C35.417,34.183 33.9,35.333 33,35.7C32.117,36.05 30.283,36.25 27.867,33.683C27.467,33.25 26.967,33.017 26.45,33.067C25.95,33.1 25.467,33.367 25.117,33.833L23.433,36.083C22.567,37.25 21.3,37.917 20,37.917ZM13.467,30.55C13.533,30.55 13.617,30.55 13.683,30.55C14.917,30.617 16.083,31.267 16.867,32.317L18.55,34.567C19.367,35.65 20.617,35.65 21.433,34.567L23.117,32.317C23.917,31.267 25.067,30.617 26.317,30.55C27.55,30.483 28.783,31 29.683,31.967C30.95,33.317 31.767,33.483 32.067,33.367C32.467,33.2 32.9,32.233 32.9,30.5L32.9,11.733C32.9,5.717 31.85,4.583 26.283,4.583L13.7,4.583C8.133,4.583 7.083,5.717 7.083,11.733L7.083,30.5C7.083,32.25 7.517,33.217 7.917,33.367C8.2,33.483 9.033,33.317 10.3,31.967C11.2,31.05 12.317,30.55 13.467,30.55Z" fill="#787878" fill-opacity="0.975"/>
<path d="M27.05,19.583L17.883,19.583C17.2,19.583 16.633,19.016 16.633,18.333C16.633,17.65 17.2,17.083 17.883,17.083L27.05,17.083C27.733,17.083 28.3,17.65 28.3,18.333C28.3,19.016 27.733,19.583 27.05,19.583Z" fill="#787878" fill-opacity="0.975"/>
<path d="M27.05,12.916L17.883,12.916C17.2,12.916 16.633,12.35 16.633,11.666C16.633,10.983 17.2,10.416 17.883,10.416L27.05,10.416C27.733,10.416 28.3,10.983 28.3,11.666C28.3,12.35 27.733,12.916 27.05,12.916Z" fill="#787878" fill-opacity="0.975"/>
<path d="M12.967,13.333C12.05,13.333 11.3,12.583 11.3,11.666C11.3,10.75 12.05,10 12.967,10C13.883,10 14.633,10.75 14.633,11.666C14.633,12.583 13.883,13.333 12.967,13.333Z" fill="#787878" fill-opacity="0.975"/>
<path d="M12.967,20C12.05,20 11.3,19.25 11.3,18.333C11.3,17.416 12.05,16.666 12.967,16.666C13.883,16.666 14.633,17.416 14.633,18.333C14.633,19.25 13.883,20 12.967,20Z" fill="#787878" fill-opacity="0.975"/>
</svg>
