<svg width="38" height="38" viewBox="0 0 38 38" fill="none" xmlns="http://www.w3.org/2000/svg" xmlns:xlink="http://www.w3.org/1999/xlink">
<path d="M18,11.333C16.232,11.333 14.536,12.036 13.286,13.286C12.036,14.536 11.333,16.232 11.333,18C11.333,19.768 12.036,21.464 13.286,22.714C14.536,23.964 16.232,24.667 18,24.667C19.768,24.667 21.464,23.964 22.714,22.714C23.964,21.464 24.667,19.768 24.667,18C24.667,16.232 23.964,14.536 22.714,13.286C21.464,12.036 19.768,11.333 18,11.333ZM15.643,15.643C16.268,15.018 17.116,14.667 18,14.667C18.884,14.667 19.732,15.018 20.357,15.643C20.982,16.268 21.333,17.116 21.333,18C21.333,18.884 20.982,19.732 20.357,20.357C19.732,20.982 18.884,21.333 18,21.333C17.116,21.333 16.268,20.982 15.643,20.357C15.018,19.732 14.667,18.884 14.667,18C14.667,17.116 15.018,16.268 15.643,15.643Z" clip-rule="evenodd" fill-rule="evenodd" fill="#787878"/>
<path d="M16.302,-0.333C15.545,-0.333 14.883,0.177 14.69,0.909L13.845,4.118L11.162,5.249L9.108,3.422C8.448,2.835 7.446,2.864 6.822,3.488L3.488,6.822C2.884,7.425 2.835,8.388 3.373,9.051L5.173,11.267L4.069,13.983L0.955,14.71C0.2,14.886 -0.333,15.559 -0.333,16.333L-0.333,19.667C-0.333,20.418 0.17,21.077 0.895,21.275L4.114,22.153L5.248,24.844L3.423,26.891C2.835,27.55 2.864,28.554 3.488,29.179L6.822,32.512C7.426,33.117 8.39,33.166 9.053,32.625L11.269,30.819L13.918,31.909L14.717,35.075C14.904,35.815 15.57,36.333 16.333,36.333L19.667,36.333C20.43,36.333 21.095,35.815 21.283,35.076L22.084,31.908L24.822,30.774C25.097,31.005 25.413,31.277 25.728,31.55C26.04,31.822 26.331,32.079 26.543,32.267C26.649,32.362 26.736,32.439 26.795,32.492L26.886,32.573C27.545,33.164 28.553,33.138 29.179,32.512L32.512,29.179C33.125,28.565 33.166,27.584 32.605,26.922L30.789,24.781L31.913,22.068L35.086,21.243C35.821,21.052 36.333,20.389 36.333,19.63L36.333,16.333C36.333,15.571 35.816,14.906 35.078,14.718L31.924,13.916L30.803,11.209L32.606,9.076C33.166,8.414 33.125,7.434 32.512,6.822L29.179,3.488C28.563,2.873 27.579,2.835 26.917,3.4L24.8,5.21L21.998,4.057L21.17,0.91C20.978,0.177 20.316,-0.333 19.558,-0.333L16.302,-0.333ZM29.069,27.907L27.929,29.047L27.917,29.037C27.301,28.501 26.508,27.822 26.061,27.503C25.593,27.168 24.986,27.098 24.454,27.319L20.036,29.149C19.549,29.35 19.187,29.769 19.058,30.28L18.369,33L17.632,33L16.944,30.279C16.815,29.767 16.451,29.346 15.962,29.145L11.619,27.359C11.054,27.126 10.406,27.222 9.932,27.608L8.114,29.09L6.958,27.935L8.437,26.276C8.866,25.796 8.979,25.112 8.729,24.519L6.871,20.111C6.672,19.639 6.268,19.285 5.774,19.151L3,18.394L3,17.656L5.667,17.033C6.194,16.91 6.629,16.539 6.832,16.038L8.632,11.609C8.861,11.046 8.765,10.403 8.382,9.931L6.908,8.116L8.067,6.957L9.732,8.439C10.212,8.866 10.895,8.979 11.487,8.729L15.896,6.871C16.372,6.67 16.729,6.259 16.86,5.759L17.586,3L18.273,3L18.985,5.707C19.118,6.212 19.48,6.626 19.963,6.825L24.475,8.68C25.053,8.918 25.716,8.812 26.191,8.405L27.911,6.935L29.071,8.095L27.602,9.832C27.2,10.309 27.097,10.97 27.335,11.546L29.164,15.963C29.365,16.448 29.783,16.811 30.293,16.94L33,17.629L33,18.341L30.271,19.05C29.765,19.182 29.35,19.543 29.15,20.026L27.32,24.446C27.081,25.023 27.185,25.685 27.589,26.161L29.069,27.907Z" clip-rule="evenodd" fill-rule="evenodd" fill="#787878"/>
</svg>
