<svg width="34" height="34" viewBox="0 0 34 34" fill="none" xmlns="http://www.w3.org/2000/svg" xmlns:xlink="http://www.w3.org/1999/xlink">
<path d="M16,0.463C14.477,0.463 12.983,0.88 11.681,1.669L3.348,6.719C2.122,7.462 1.109,8.508 0.406,9.756C-0.297,11.005 -0.667,12.413 -0.667,13.846L-0.667,24.333C-0.667,26.543 0.211,28.663 1.774,30.225C3.337,31.788 5.456,32.666 7.667,32.666L24.333,32.666C26.543,32.666 28.663,31.788 30.226,30.225C31.789,28.663 32.667,26.543 32.667,24.333L32.667,13.845C32.666,12.412 32.297,11.004 31.593,9.755C30.89,8.507 29.877,7.462 28.652,6.719L20.319,1.669C19.016,0.88 17.523,0.463 16,0.463ZM13.409,4.52C14.19,4.047 15.086,3.796 16,3.796C16.914,3.796 17.81,4.047 18.591,4.52L26.924,9.57C27.66,10.016 28.267,10.643 28.689,11.392C29.111,12.14 29.333,12.985 29.333,13.845L29.333,24.333C29.333,25.659 28.806,26.931 27.869,27.868C26.931,28.806 25.659,29.333 24.333,29.333L22.667,29.333L22.667,24.333C22.667,22.565 21.964,20.869 20.714,19.619C19.464,18.369 17.768,17.666 16,17.666C14.232,17.666 12.536,18.369 11.286,19.619C10.036,20.869 9.333,22.565 9.333,24.333L9.333,29.333L7.667,29.333C6.341,29.333 5.069,28.806 4.131,27.868C3.193,26.931 2.667,25.659 2.667,24.333L2.667,13.846C2.667,12.987 2.888,12.141 3.31,11.392C3.732,10.643 4.34,10.016 5.075,9.57L13.409,4.52ZM18.357,21.976C18.982,22.601 19.333,23.449 19.333,24.333L19.333,29.333L12.667,29.333L12.667,24.333C12.667,23.449 13.018,22.601 13.643,21.976C14.268,21.351 15.116,21 16,21C16.884,21 17.732,21.351 18.357,21.976Z" clip-rule="evenodd" fill-rule="evenodd" fill="url(#pf_0_1_1471)"/>
<defs>
<linearGradient id="pf_0_1_1471" x1="16" y1="0.463" x2="16" y2="32.666" gradientUnits="userSpaceOnUse">
<stop offset="1" stop-color="#787878" stop-opacity="0.975"/>
</linearGradient>
</defs>
</svg>
