<svg width="28" height="34" viewBox="0 0 28 34" fill="none" xmlns="http://www.w3.org/2000/svg" xmlns:xlink="http://www.w3.org/1999/xlink">
<path d="M5.667,-0.667C4.341,-0.667 3.069,-0.14 2.131,0.798C1.194,1.736 0.667,3.007 0.667,4.333L0.667,27.667C0.667,28.993 1.194,30.265 2.131,31.202C3.069,32.14 4.341,32.667 5.667,32.667L22.333,32.667C23.66,32.667 24.931,32.14 25.869,31.202C26.807,30.265 27.333,28.993 27.333,27.667L27.333,26C27.333,25.08 26.587,24.333 25.667,24.333C24.746,24.333 24,25.08 24,26L24,27.667C24,28.109 23.825,28.533 23.512,28.845C23.199,29.158 22.775,29.333 22.333,29.333L5.667,29.333C5.225,29.333 4.801,29.158 4.488,28.845C4.176,28.533 4,28.109 4,27.667L4,4.333C4,3.891 4.176,3.468 4.488,3.155C4.801,2.842 5.225,2.667 5.667,2.667L22.333,2.667C22.775,2.667 23.199,2.842 23.512,3.155C23.825,3.468 24,3.891 24,4.333L24,6C24,6.921 24.746,7.667 25.667,7.667C26.587,7.667 27.333,6.921 27.333,6L27.333,4.333C27.333,3.007 26.807,1.736 25.869,0.798C24.931,-0.14 23.66,-0.667 22.333,-0.667L5.667,-0.667Z" fill="#FFFFFF"/>
<path d="M21.845,9.822C21.194,9.171 20.139,9.171 19.488,9.822C18.837,10.473 18.837,11.528 19.488,12.179L21.643,14.333L14,14.333C13.08,14.333 12.333,15.08 12.333,16C12.333,16.921 13.08,17.667 14,17.667L21.643,17.667L19.488,19.822C18.837,20.472 18.837,21.528 19.488,22.179C20.139,22.829 21.194,22.829 21.845,22.179L26.845,17.179C27.496,16.528 27.496,15.473 26.845,14.822L21.845,9.822Z" fill="#FFFFFF"/>
</svg>
