<svg width="38" height="38" viewBox="0 0 38 38" fill="none" xmlns="http://www.w3.org/2000/svg" xmlns:xlink="http://www.w3.org/1999/xlink">
<path d="M14.667,13C14.667,12.022 15.032,11.396 15.511,10.99C16.026,10.552 16.772,10.292 17.583,10.292C18.394,10.292 19.141,10.552 19.656,10.99C20.135,11.396 20.5,12.022 20.5,13C20.5,13.729 20.328,14.133 20.129,14.432C19.896,14.781 19.59,15.057 19.072,15.522L18.968,15.615C18.436,16.095 17.735,16.743 17.201,17.687C16.65,18.66 16.333,19.835 16.333,21.333C16.333,22.254 17.08,23 18,23C18.921,23 19.667,22.254 19.667,21.333C19.667,20.332 19.871,19.736 20.102,19.329C20.349,18.893 20.689,18.551 21.198,18.093C21.244,18.052 21.293,18.009 21.343,17.964C21.798,17.558 22.422,17.002 22.903,16.281C23.484,15.409 23.833,14.355 23.833,13C23.833,11.062 23.053,9.5 21.813,8.448C20.609,7.427 19.064,6.958 17.583,6.958C16.103,6.958 14.558,7.427 13.354,8.448C12.114,9.5 11.333,11.062 11.333,13C11.333,13.921 12.08,14.667 13,14.667C13.921,14.667 14.667,13.921 14.667,13Z" fill="#FFFFFF"/>
<path d="M19.25,29.12C19.869,28.439 19.819,27.384 19.138,26.765C18.457,26.146 17.403,26.196 16.784,26.877L16.767,26.896C16.148,27.577 16.198,28.631 16.879,29.25C17.56,29.869 18.614,29.819 19.233,29.138L19.25,29.12Z" fill="#FFFFFF"/>
<path d="M18,-0.333C7.875,-0.333 -0.333,7.875 -0.333,18C-0.333,28.126 7.875,36.333 18,36.333C28.126,36.333 36.333,28.126 36.333,18C36.333,7.875 28.126,-0.333 18,-0.333ZM3,18C3,9.716 9.716,3 18,3C26.285,3 33,9.716 33,18C33,26.285 26.285,33 18,33C9.716,33 3,26.285 3,18Z" clip-rule="evenodd" fill-rule="evenodd" fill="#FFFFFF"/>
</svg>
