<svg width="18" height="19" viewBox="0 0 18 19" fill="none" xmlns="http://www.w3.org/2000/svg">
<path d="M12.1388 15.333L10.323 13.4152C9.62082 13.6802 8.86179 13.7293 8.13422 13.5567C7.40665 13.3841 6.74047 12.9971 6.21317 12.4405C5.68588 11.8839 5.31916 11.1807 5.15568 10.4127C4.99221 9.6447 5.0387 8.8435 5.28975 8.10231L2.97225 5.65606C1.05525 7.45512 0 9.5 0 9.5C0 9.5 3.375 16.0312 9 16.0312C10.0806 16.0283 11.149 15.7906 12.1388 15.333ZM5.86125 3.667C6.85104 3.20941 7.91945 2.97173 9 2.96875C14.625 2.96875 18 9.5 18 9.5C18 9.5 16.9436 11.5437 15.0289 13.3451L12.7091 10.8965C12.9602 10.1553 13.0067 9.35411 12.8432 8.58612C12.6797 7.81814 12.313 7.11494 11.7857 6.55835C11.2584 6.00176 10.5922 5.61467 9.86465 5.44211C9.13708 5.26955 8.37805 5.31863 7.67587 5.58363L5.86125 3.667Z" fill="black"/>
<path d="M6.21544 9.07959C6.15355 9.53596 6.19321 10.0013 6.33127 10.4386C6.46933 10.876 6.70199 11.2735 7.01083 11.5995C7.31966 11.9254 7.69617 12.171 8.11053 12.3168C8.52489 12.4625 8.96571 12.5043 9.39806 12.439L6.21544 9.07959ZM11.7842 9.92034L8.60156 6.55972C9.03391 6.49439 9.47473 6.53626 9.88909 6.68198C10.3035 6.82771 10.68 7.0733 10.9888 7.39929C11.2976 7.72528 11.5303 8.12271 11.6684 8.56009C11.8064 8.99747 11.8461 9.46278 11.7842 9.91915V9.92034ZM15.3516 17.0453L1.85156 2.79534L2.64806 1.95459L16.1481 16.2046L15.3516 17.0453Z" fill="black"/>
</svg>
