<svg width="20" height="22" viewBox="0 0 20 22" fill="none" xmlns="http://www.w3.org/2000/svg">
<path d="M17.7778 2.14264H16.6667V0H14.4444V2.14264H5.55556V0H3.33333V2.14264H2.22222C0.988889 2.14264 0.0111111 3.10683 0.0111111 4.28528L0 19.2838C0 20.4622 0.988889 21.4264 2.22222 21.4264H17.7778C19 21.4264 20 20.4622 20 19.2838V4.28528C20 3.10683 19 2.14264 17.7778 2.14264ZM17.7778 19.2838H2.22222V8.57056H17.7778V19.2838ZM6.66667 12.8558H4.44444V10.7132H6.66667V12.8558ZM11.1111 12.8558H8.88889V10.7132H11.1111V12.8558ZM15.5556 12.8558H13.3333V10.7132H15.5556V12.8558ZM6.66667 17.1411H4.44444V14.9985H6.66667V17.1411ZM11.1111 17.1411H8.88889V14.9985H11.1111V17.1411ZM15.5556 17.1411H13.3333V14.9985H15.5556V17.1411Z" fill="black"/>
</svg>
