<svg width="28" height="30" viewBox="0 0 28 30" fill="none" xmlns="http://www.w3.org/2000/svg">
<path fill-rule="evenodd" clip-rule="evenodd" d="M11.6667 20C15.5327 20 18.6667 16.6421 18.6667 12.5C18.6667 8.35787 15.5327 5 11.6667 5C7.80072 5 4.66671 8.35787 4.66671 12.5C4.66671 16.6421 7.80072 20 11.6667 20ZM11.6667 22.5C16.8214 22.5 21 18.0229 21 12.5C21 6.97712 16.8214 2.5 11.6667 2.5C6.51202 2.5 2.33337 6.97712 2.33337 12.5C2.33337 18.0229 6.51202 22.5 11.6667 22.5Z" fill="#B6C2CD"/>
<path d="M17.8282 20.0114C18.1291 19.728 18.4127 19.4241 18.6772 19.1018L19.4928 19.3455C19.6862 19.4032 19.8624 19.5136 20.0044 19.6657L25.6657 25.7313L24.0158 27.4991L18.3545 21.4334C18.2125 21.2813 18.1096 21.0925 18.0557 20.8853L17.8282 20.0114Z" fill="#324558"/>
</svg>
